<svg width="32" height="32" viewBox="0 0 32 32" fill="none" xmlns="http://www.w3.org/2000/svg">
<path fill-rule="evenodd" clip-rule="evenodd" d="M14.3159 0.184858C14.5001 0.0840396 14.7494 0.045639 15.0377 0.045639C15.327 0.045639 15.5777 0.0858665 15.7629 0.191696C15.9654 0.307448 16.0755 0.494662 16.0755 0.728241V0.736071L15.9173 4.95548C15.9166 5.04737 15.894 5.13726 15.8433 5.21788C15.7922 5.29903 15.7201 5.35906 15.6385 5.40226C15.4816 5.48538 15.2729 5.51536 15.0377 5.51536C14.8026 5.51536 14.5939 5.48538 14.437 5.40226C14.3554 5.35906 14.2833 5.29903 14.2322 5.21788C14.1815 5.13727 14.1589 5.04739 14.1582 4.95552C14.1185 3.905 14.0863 3.0906 14.0599 2.51353L14.0597 2.50865C14.0464 1.91678 14.0333 1.49818 14.0202 1.25167C14.0071 1.00435 14 0.845988 14 0.786958V0.708353C14 0.599827 14.0252 0.49499 14.0824 0.401206C14.1393 0.307878 14.2208 0.23698 14.3159 0.184858ZM17.6704 0.184858C17.8545 0.0840396 18.1038 0.045639 18.3922 0.045639C18.6814 0.045639 18.9322 0.0858664 19.1173 0.191696C19.3199 0.307448 19.4299 0.494662 19.4299 0.728241V0.736071L19.2718 4.95548C19.2711 5.04737 19.2485 5.13726 19.1978 5.21788C19.1467 5.29903 19.0745 5.35906 18.9929 5.40226C18.836 5.48538 18.6273 5.51536 18.3922 5.51536C18.1571 5.51536 17.9484 5.48538 17.7915 5.40226C17.7099 5.35906 17.6377 5.29903 17.5866 5.21788C17.5359 5.13728 17.5133 5.04742 17.5126 4.95555C17.4729 3.90502 17.4408 3.0906 17.4143 2.51353L17.4141 2.50865C17.4009 1.91678 17.3877 1.49818 17.3746 1.25167C17.3615 1.00435 17.3545 0.845988 17.3545 0.786958V0.708353C17.3545 0.599827 17.3797 0.49499 17.4368 0.401206C17.4937 0.307878 17.5752 0.23698 17.6704 0.184858ZM20.4524 6.75723C20.6517 6.57771 20.8984 6.49297 21.1788 6.49297H27.4464C28.2512 6.49297 28.8976 6.70808 29.3563 7.16471C29.8167 7.62292 30.0288 8.28027 30.0288 9.09809V14.43C30.0288 15.0515 30.1557 15.4625 30.3642 15.7033C30.565 15.9341 30.9495 16.0862 31.5851 16.1009L31.5957 16.1011C31.8489 16.1199 32.0655 16.2192 32.2292 16.4052C32.3951 16.5913 32.4693 16.8247 32.4693 17.0846C32.4693 17.3347 32.3927 17.5604 32.2358 17.7543C32.072 17.9602 31.8458 18.0676 31.5829 18.0683C30.9486 18.0833 30.5653 18.2354 30.3636 18.4665C30.1545 18.7072 30.0288 19.1225 30.0288 19.7628V25.0947C30.0288 25.6364 29.9347 26.1078 29.7358 26.5056C29.5354 26.9065 29.2385 27.2082 28.846 27.4097L28.845 27.4102C28.455 27.6078 27.9859 27.7017 27.4464 27.7017H21.3879V27.7074H21.1788C20.8938 27.7074 20.647 27.615 20.448 27.4268C20.2527 27.2409 20.1467 27.0108 20.1467 26.7473C20.1467 26.4957 20.231 26.268 20.3982 26.0793C20.5752 25.8795 20.8111 25.7854 21.0841 25.7854H26.9037C27.2001 25.7854 27.3876 25.7103 27.5066 25.5893L27.5078 25.5881C27.6256 25.4703 27.7051 25.2684 27.7051 24.9356V19.5554C27.7051 19.0568 27.8059 18.5989 28.0085 18.1843C28.2099 17.7714 28.4829 17.4417 28.8281 17.1987C28.8851 17.1588 28.9445 17.1217 29.0048 17.0884C28.9445 17.055 28.8858 17.0184 28.8287 16.9785C28.4827 16.7371 28.2097 16.4059 28.0084 15.9922C27.8058 15.5777 27.7051 15.1198 27.7051 14.6213V9.26477C27.7051 8.93476 27.626 8.73201 27.5073 8.61185C27.3863 8.49115 27.1965 8.41504 26.9037 8.41504H21.0841C20.8117 8.41504 20.5769 8.31907 20.3992 8.12127C20.2309 7.9337 20.1467 7.70623 20.1467 7.45211C20.1467 7.17667 20.2477 6.93991 20.4524 6.75723ZM20.4524 6.75723L20.4515 6.75807L20.5916 6.91324L20.4524 6.75723ZM3.90353 7.17033C4.36067 6.71319 5.00931 6.49825 5.81383 6.49825H12.0814C12.3632 6.49825 12.6084 6.58477 12.8077 6.76246L12.8087 6.76334C13.01 6.94515 13.1135 7.18296 13.1135 7.45739C13.1135 7.71227 13.029 7.937 12.862 8.12545C12.6854 8.32471 12.4498 8.42032 12.1761 8.42032H6.35649C6.06127 8.42032 5.87262 8.49672 5.75278 8.61722C5.63503 8.73497 5.55507 8.93727 5.55507 9.27005V14.6266C5.55507 15.1253 5.45431 15.5832 5.2516 15.9979C5.05023 16.4107 4.7773 16.7404 4.43216 16.9833C4.37506 17.0232 4.31568 17.0603 4.25542 17.0936C4.31568 17.127 4.37437 17.1636 4.43146 17.2035C4.77748 17.4449 5.05053 17.7761 5.25178 18.1898C5.45448 18.6044 5.55507 19.062 5.55507 19.5607V24.9409C5.55507 25.2733 5.63445 25.4748 5.75278 25.5937C5.87296 25.7152 6.0622 25.7906 6.35649 25.7906H12.1761C12.4485 25.7906 12.6829 25.8865 12.8606 26.083C13.0313 26.2729 13.1135 26.5001 13.1135 26.7526C13.1135 27.0177 13.0091 27.2457 12.8123 27.432C12.6126 27.6221 12.3647 27.7127 12.0814 27.7127H5.60476V27.7021C5.15234 27.6805 4.75393 27.5871 4.41524 27.4155C4.0217 27.2155 3.72258 26.9094 3.52418 26.5105C3.32752 26.1151 3.23145 25.6412 3.23145 25.1V19.7681C3.23145 19.1307 3.10425 18.7134 2.896 18.4711C2.69533 18.2406 2.31151 18.0886 1.67736 18.0736C1.41244 18.0729 1.18832 17.9679 1.02386 17.7589C0.8674 17.5643 0.790894 17.3371 0.790894 17.0899C0.790894 16.8299 0.865136 16.5965 1.03109 16.4103C1.19573 16.2246 1.41398 16.1255 1.66429 16.1067L1.67483 16.1059C2.31121 16.0903 2.69564 15.9391 2.89634 15.7082C3.10623 15.4668 3.23145 15.0573 3.23145 14.4353V9.10337C3.23145 8.28506 3.44567 7.62819 3.90353 7.17033ZM22.5255 14.7874C21.2689 14.7874 20.25 15.8063 20.25 17.0629C20.25 18.3196 21.2689 19.3385 22.5255 19.3385C23.7822 19.3385 24.8011 18.3196 24.8011 17.0629C24.8011 15.8063 23.7822 14.7874 22.5255 14.7874ZM8.93933 17.0629C8.93933 15.8063 9.95821 14.7874 11.2149 14.7874C12.4715 14.7874 13.4904 15.8063 13.4904 17.0629C13.4904 18.3196 12.4715 19.3385 11.2149 19.3385C9.95821 19.3385 8.93933 18.3196 8.93933 17.0629Z" fill="currentColor"></path>
</svg>