<svg width="704" height="704" viewBox="0 0 704 704" fill="none" xmlns="http://www.w3.org/2000/svg">
<g clip-path="url(#clip0_15999_2148)" transform="translate(-120, 0)">
<g filter="url(#filter0_i_15999_2148)">
<path d="M352 380.469L317.539 283.624C314.127 274.035 321.035 263.864 330.857 264.183C509.281 269.963 601.057 331.106 592.703 515.039C562.985 389.346 420.403 380.469 352 380.469Z" fill="#58E5BB"/>
</g>
<g filter="url(#filter1_i_15999_2148)">
<path d="M306.919 222.7L270.846 128.332C267.161 118.693 274.066 108.236 284.036 108.336C464.826 110.142 592.175 117.234 592.175 355.746C562.447 230.053 275.313 222.7 306.919 222.7Z" fill="#58E5BB"/>
</g>
<g filter="url(#filter2_i_15999_2148)">
<path d="M400.252 543.282L363.598 440.53C360.196 430.993 367.032 420.849 376.805 421.166C523.766 425.923 607.397 485.232 599.103 667.85C569.376 542.156 479.039 543.282 400.252 543.282Z" fill="#58E5BB"/>
</g>
</g>
</svg>
